<?xml version="1.0" encoding="UTF-8"?>
<svg width="346px" height="396px" viewBox="0 0 346 396" version="1.1" xmlns="http://www.w3.org/2000/svg" xmlns:xlink="http://www.w3.org/1999/xlink">
    <!-- Generator: Sketch 45.1 (43504) - http://www.bohemiancoding.com/sketch -->
    <title>logo-houseshop</title>
    <desc>Created with Sketch.</desc>
    <defs></defs>
    <g id="Page-1" stroke="none" stroke-width="1" fill="none" fill-rule="evenodd">
        <g id="logo-houseshop">
            <path d="M183.643249,391.38345 C291.254486,306.925062 345.060105,233.97393 345.060105,172.530052 C345.060105,77.2443356 267.815769,0 172.530052,0 C77.2443356,0 0,77.2443356 0,172.530052 C0,233.97393 53.8056193,306.925063 161.416858,391.383451 L161.416859,391.38345 C167.940943,396.50386 177.119164,396.50386 183.643249,391.38345 Z" id="Oval" fill="#FF6D46"></path>
            <circle id="Oval-2" fill="#FFFFFF" cx="172.015369" cy="266.015369" r="38.015369"></circle>
            <path d="M53,168.405194 L165.033195,77.9924398 L165.033195,77.9924398 C171.616577,72.6795354 181.011307,72.6680629 187.607644,77.9648728 L284.584502,155.836564 L284.584502,155.836564 C292.335888,162.060869 293.573832,173.390406 287.349527,181.141793 C286.940565,181.65109 286.504184,182.13775 286.042321,182.599613 L274.307481,194.334453 L274.307481,194.334453 C267.855305,200.786629 257.595879,201.390147 250.431715,195.738961 L176.309324,137.27026" id="Path-4" stroke="#FFFFFF" stroke-width="26" stroke-linecap="round"></path>
        </g>
    </g>
</svg>